<?xml version="1.0" encoding="UTF-8"?><svg id="Capa_1" xmlns="http://www.w3.org/2000/svg" height="60" viewBox="0 0 224 60"><defs><style>.cls-1{fill:#1c4795;}.cls-1,.cls-2{stroke-width:0px;}.cls-2{fill:#e12027;}</style></defs><path class="cls-1" d="M1.9,43.66V2.1h15.43c7.39,0,12.35,2.87,12.35,10.8,0,3.75-1.21,6.78-4.58,8.49v.11c5.95.77,8.49,4.8,8.49,10.58,0,8.71-7.44,11.58-15.05,11.58H1.9ZM12.7,18.42h1.21c2.87,0,5.84-.5,5.84-4.02,0-3.8-3.36-4.02-6.28-4.02h-.77v8.05ZM12.7,35.39h1.38c3.2,0,8.6.17,8.6-4.41,0-5.02-5.35-4.52-8.87-4.52h-1.1v8.93Z"/><path class="cls-1" d="M65.27,31.2h-21.11c0,4.08,2.15,6.28,6.28,6.28,2.15,0,3.69-.72,4.8-2.59h9.65c-1.6,6.67-7.94,9.7-14.39,9.7-9.37,0-16.37-5.29-16.37-15.05s6.45-15.1,15.65-15.1c9.81,0,15.49,6.06,15.49,15.71v1.05ZM55.96,25.42c-.5-2.7-2.98-4.46-5.68-4.46-2.92,0-5.35,1.54-5.95,4.46h11.63Z"/><path class="cls-1" d="M85.33,22.66c-1.54-.83-3.69-1.38-5.4-1.38-1.16,0-3.14.5-3.14,1.93,0,1.93,3.14,2.2,4.52,2.48,4.69.94,8.21,3.14,8.21,8.38,0,7.44-6.78,10.53-13.34,10.53-4.02,0-7.99-1.16-11.41-3.25l3.64-7c2.04,1.43,5.46,2.87,7.94,2.87,1.27,0,3.14-.61,3.14-2.15,0-2.2-3.14-2.31-6.28-3.14-3.14-.83-6.28-2.37-6.28-7.44,0-6.95,6.28-10.03,12.46-10.03,3.2,0,6.39.5,9.32,1.82l-3.36,6.39Z"/><path class="cls-1" d="M102.68,43.66h-10.03v-20.01h-3.25v-8.27h3.25V6.9h10.03v8.49h5.68v8.27h-5.68v20.01Z"/><path class="cls-2" d="M109.88,2.1h15.32c11.58,0,21.11,9.09,21.11,20.78s-9.59,20.78-21.11,20.78h-15.32V2.1ZM120.68,34.51h2.43c6.45,0,11.96-3.53,11.96-11.63,0-7.44-4.91-11.63-11.85-11.63h-2.54v23.26Z"/><path class="cls-2" d="M177.95,43.66h-10.03v-3.14h-.11c-1.76,2.81-5.24,4.08-8.54,4.08-8.38,0-14.28-7-14.28-15.1s5.79-15.05,14.17-15.05c3.25,0,6.67,1.21,8.76,3.69v-2.76h10.03v28.28ZM155.35,29.55c0,3.58,2.37,6.34,6.45,6.34s6.45-2.76,6.45-6.34-2.37-6.39-6.45-6.39-6.45,2.92-6.45,6.39Z"/><path class="cls-2" d="M176.41,15.38h11.58l7.55,14.5,7.39-14.5h11.41l-22.66,42.39h-11.24l9.65-17.97-13.67-24.42Z"/><path class="cls-1" d="M218.46,19.58c-2.07,0-3.75-1.68-3.75-3.75s1.68-3.75,3.75-3.75,3.75,1.68,3.75,3.75-1.68,3.75-3.75,3.75ZM218.46,13.09c-1.53,0-2.68,1.13-2.68,2.74s1.15,2.74,2.68,2.74,2.68-1.13,2.68-2.74-1.15-2.74-2.68-2.74ZM219,17.79l-.59-1.46h-.32v1.46h-1.07v-3.91h1.75c.87,0,1.33.62,1.33,1.26,0,.53-.32.86-.63,1.01l.73,1.63h-1.21ZM218.63,14.75h-.54v.79h.54c.26,0,.41-.19.41-.39s-.16-.39-.41-.39Z"/></svg>