<svg width="145" height="57" viewBox="0 0 145 57" fill="none" xmlns="http://www.w3.org/2000/svg">
<path fill-rule="evenodd" clip-rule="evenodd" d="M80.5256 15.696C80.3793 15.4496 80.2219 15.2031 80.0644 14.9679C79.7494 14.531 79.412 14.1165 79.0296 13.7244C77.4886 12.156 75.4414 11.1366 73.3043 10.4756C71.9432 10.0499 70.5372 9.76985 69.1312 9.557C68.9287 9.52339 68.7825 9.50099 68.7825 9.50099C68.625 9.47858 68.0851 9.46738 68.3888 9.70263C68.6025 9.85947 68.8162 10.0387 68.985 10.2404C69.1649 10.4532 69.2774 10.7109 69.3449 10.9797C69.3562 11.0469 69.3786 11.1254 69.3786 11.1926C69.3899 11.3158 69.2887 11.3046 69.1762 11.3382C69.0187 11.3942 68.8612 11.4502 68.715 11.5175C67.6127 11.9992 66.7803 12.8394 66.5104 13.9708C66.4879 14.0268 66.4654 14.0828 66.4541 14.1389C65.813 12.8954 63.6983 12.4697 61.8649 12.8394C65.3181 13.5339 64.7332 19.4153 61.9661 20.3899C64.2157 20.5019 66.4541 20.065 66.8928 18.2166C66.994 17.7797 66.8253 17.2644 66.8703 16.8611C66.9266 16.4578 67.0165 16.0881 67.1515 15.752C67.1515 15.752 67.174 15.7408 67.174 15.7184C68.8275 12.3913 72.8768 11.9992 75.5201 13.0298C76.6562 13.4779 75.2502 13.153 73.563 13.3211C71.9095 13.4891 70.166 14.3293 69.7048 15.9425C69.4236 16.9283 69.7161 18.0486 70.3235 18.8776C70.9421 19.7178 71.977 20.2667 73.0455 20.4571C75.1152 20.838 77.2861 19.9418 78.7821 18.6199C79.5132 17.9814 80.1206 17.186 80.4581 16.301C80.5368 16.0993 80.6605 15.8641 80.5481 15.6736M76.5212 16.2786C76.6 16.2786 76.6225 16.2786 76.5212 16.2786C76.375 16.2898 76.4987 16.2786 76.5212 16.2786C75.9701 16.3234 75.4414 15.9649 75.3627 15.4384C75.2839 14.8894 75.7001 14.2285 76.3413 14.2733C76.9037 14.3069 77.4548 14.6542 77.4998 15.2143C77.5561 15.7632 77.0949 16.2337 76.5212 16.2786Z" fill="#002D5D"/>
<path fill-rule="evenodd" clip-rule="evenodd" d="M59.8964 18.5975C59.7727 12.3465 64.7556 7.17085 71.0208 7.05883C75.0927 6.98041 78.6921 9.05289 80.7617 12.2344C78.9508 8.33592 74.9689 5.6585 70.3909 5.74812C64.2157 5.87135 59.3003 10.9685 59.4127 17.1412C59.4465 18.5863 59.7389 19.953 60.2676 21.2077C60.0539 20.3787 59.9301 19.5049 59.9077 18.6087" fill="#D7AA38"/>
<path d="M44.9476 27.2795C52.0902 30.2594 63.822 30.2818 76.24 26.753C88.6579 23.2242 98.6238 17.0291 103.123 10.7445C96.9703 16.4354 87.2519 21.6782 75.7226 24.9606C64.1932 28.2429 53.17 28.8927 44.9364 27.2795" fill="#002D5D"/>
<path d="M74.2266 22.1263C61.8649 25.5991 50.0768 26.3497 41.3033 24.7365C48.8958 27.7724 61.4262 27.7164 74.744 23.9859C88.0618 20.2443 98.7926 13.7692 103.686 7.23807C97.0378 13.1754 86.5771 18.6647 74.2153 22.1375" fill="#8A9EBE"/>
<path d="M58.2092 17.5781C58.1305 10.5876 63.7433 4.85192 70.7397 4.7735C77.736 4.69508 83.4838 10.2964 83.5626 17.2868C83.5626 17.8805 83.5176 18.4519 83.4501 19.0232C83.9225 18.8328 84.3949 18.6423 84.8673 18.4519C84.8673 18.3959 84.8786 18.351 84.9011 18.295C85.1823 17.2868 85.8797 16.7155 86.8358 16.413C87.5894 16.1777 88.478 15.9089 88.4667 14.9679C88.4555 13.9148 86.8695 14.0268 86.1159 13.8924C85.0586 13.702 84.4849 13.2875 84.0237 12.2904C83.5626 11.3158 83.7088 10.3524 84.4962 9.59061C84.9911 9.1201 86.2059 8.45915 86.0371 7.65256C85.7784 6.46509 84.6649 6.29705 83.7763 6.87958C83.0114 7.3837 82.1565 7.61896 81.2567 7.3837C80.3793 7.14845 79.6594 6.48749 79.3895 5.61369C79.052 4.52704 79.6707 3.84368 79.7382 2.81304C79.7719 2.23051 79.142 1.81601 78.6134 1.80481C78.1522 1.79361 77.826 2.06247 77.5335 2.39855C76.8137 3.23874 75.9588 3.98932 74.7777 3.89969C73.6417 3.81007 72.8656 3.16032 72.4831 2.11848C72.3032 1.64797 72.1794 1.15506 72.0107 0.68455C71.7857 0.0460019 71.4933 -0.010011 70.8409 0.00119164C70.8746 0.00119164 70.8296 0.00119147 70.7397 0.0123941C69.896 0.16923 69.8511 1.28949 69.6936 1.97285C69.4799 2.93627 68.7487 3.58602 67.8039 3.83248C66.4991 4.15735 65.4755 3.4964 64.6657 2.53298C64.0808 1.84962 63.2596 0.740563 62.4385 1.89443C61.9099 2.645 62.8435 4.05653 62.866 4.86312C62.8997 5.86015 62.3373 6.78996 61.4599 7.26047C60.2564 7.89902 59.1203 7.3613 57.9393 6.96921C57.5793 6.84598 56.9382 6.54351 56.5782 6.78996C56.1846 7.05883 56.0946 7.59655 56.2745 7.99984C56.7357 9.05289 57.9843 9.57941 58.3217 10.7109C58.6142 11.6967 58.1642 12.7946 57.3881 13.4331C56.477 14.1725 55.116 14.1389 54.0249 14.4189C53.53 14.5422 53.2488 14.6878 53.26 15.2367C53.26 15.7184 53.7662 15.8753 54.1486 16.0545C55.7571 16.8499 57.7705 17.4324 57.4106 19.6729C57.2531 20.6812 56.522 21.3197 55.7121 21.8575C55.071 22.2944 53.7437 22.9441 54.5648 23.8851C55.3072 24.7253 56.9494 23.8403 57.883 23.9299C58.6254 23.9972 59.3003 24.3892 59.739 24.983C60.0539 24.9494 60.3576 24.9158 60.6613 24.871C59.1541 22.8209 58.243 20.3003 58.2092 17.5557" fill="#D7AA38"/>
<path d="M68.535 46.828C69.4911 46.828 70.2559 46.6264 70.2559 45.1476V38.9638C70.2559 37.6083 69.1874 37.5411 68.535 37.4851V37.1042L72.0331 36.5553V39.5463H72.0781C72.3931 38.7062 73.4167 36.5553 75.6551 36.5553C77.8934 36.5553 78.2871 37.866 78.2871 39.972V45.1364C78.2871 46.6152 79.0632 46.8168 80.0081 46.8168V47.1977H74.7889V46.8168C75.745 46.8168 76.5099 46.6152 76.5099 45.1364V40.465C76.5099 38.5157 76.4874 37.6307 74.9914 37.6307C73.4954 37.6307 72.0219 40.1849 72.0219 42.347V45.1364C72.0219 46.6152 72.7868 46.8168 73.7429 46.8168V47.1977H68.5237V46.8168L68.535 46.828Z" fill="#8A9EBE"/>
<path d="M87.6456 47.0745C87.0382 47.2985 86.2845 47.433 85.216 47.433C81.2229 47.433 79.4569 45.1925 79.4569 41.6748C79.4569 38.1572 80.8629 36.5553 84.3499 36.5553C87.8368 36.5553 87.9043 37.0146 87.9043 38.6613C87.9043 40.3081 87.4319 39.7256 86.8357 39.7256C85.9696 39.7256 85.7896 39.0198 85.6097 38.2805C85.4972 37.7763 85.0922 37.3058 84.0462 37.3058C82.5052 37.3058 81.3241 38.4373 81.3241 40.9579C81.3241 43.4785 83.2026 46.604 86.3633 46.604C89.524 46.604 87.2294 46.5144 87.6343 46.4247V47.0857L87.6456 47.0745Z" fill="#8A9EBE"/>
<path d="M96.138 47.0297C95.5981 47.2313 94.8219 47.433 93.4384 47.433C89.929 47.433 87.9493 45.5061 87.9493 41.6972C87.9493 37.8884 89.2878 36.5553 92.5498 36.5553C95.8118 36.5553 96.4304 37.6867 96.4304 40.3193V40.8234H89.8278C89.8278 42.7279 90.7614 46.604 94.5407 46.604C98.3201 46.604 95.6768 46.5368 96.1267 46.3127V47.0409L96.138 47.0297ZM94.417 40.0729C94.417 38.8742 94.0121 37.3058 92.2686 37.3058C90.5251 37.3058 89.839 39.2327 89.839 40.0729H94.417Z" fill="#8A9EBE"/>
<path d="M96.3067 46.828C97.2628 46.828 98.0277 46.6264 98.0277 45.1476V38.9638C98.0277 37.6083 96.9591 37.5411 96.3067 37.4851V37.1042L99.7937 36.5553V39.5463H99.8386C100.154 38.7062 101.177 36.5553 103.427 36.5553C105.676 36.5553 106.059 37.866 106.059 39.972V45.1364C106.059 46.6152 106.835 46.8168 107.78 46.8168V47.1977H102.572V46.8168C103.528 46.8168 104.293 46.6152 104.293 45.1364V40.465C104.293 38.5157 104.27 37.6307 102.774 37.6307C101.278 37.6307 99.8049 40.1849 99.8049 42.347V45.1364C99.8049 46.6152 100.57 46.8168 101.526 46.8168V47.1977H96.3067V46.8168V46.828Z" fill="#8D9CBB"/>
<path d="M112.785 47.3434C112.425 47.3882 112.065 47.433 111.694 47.433C108.263 47.433 108.083 46.5928 108.083 44.061V37.5411H106.25V36.7905C108.083 36.7905 109.265 35.8607 109.265 33.3961H109.849V36.7905H112.774V37.5411H109.849V44.6996C109.849 46.4248 110.626 46.6936 111.863 46.6936C113.1 46.6936 112.459 46.6264 112.774 46.5816V47.3546L112.785 47.3434Z" fill="#8A9EBE"/>
<path d="M113.224 46.828C114.18 46.828 114.945 46.6264 114.945 45.1476V38.9638C114.945 37.6083 113.899 37.5411 113.224 37.4851V37.1042L116.722 36.5552V45.1476C116.722 46.6264 117.498 46.828 118.443 46.828V47.2089H113.224V46.828ZM114.472 34.3035C114.472 33.5754 115.035 33.0152 115.766 33.0152C116.497 33.0152 117.06 33.5866 117.06 34.3035C117.06 35.0205 116.497 35.5918 115.766 35.5918C115.035 35.5918 114.472 35.0205 114.472 34.3035Z" fill="#8A9EBE"/>
<path d="M119.512 39.2551C118.972 38.0116 118.578 37.2162 117.172 37.1714V36.7905H121.964V37.1714C121.345 37.1714 120.963 37.3282 120.963 37.7203C120.963 38.1124 121.098 38.4709 121.255 38.8518L123.842 45.0356L126.137 38.919C126.294 38.5157 126.384 38.2132 126.384 37.9444C126.384 37.4403 126.047 37.2162 125.361 37.1714V36.7905H129.466V37.1714C128.195 37.261 127.88 37.5299 127.239 39.1879L124.045 47.433H122.976L119.512 39.2551Z" fill="#8A9EBE"/>
<path d="M136.631 47.0297C136.091 47.2313 135.315 47.433 133.932 47.433C130.411 47.433 128.443 45.5061 128.443 41.6972C128.443 37.8884 129.781 36.5553 133.043 36.5553C136.305 36.5553 136.924 37.6867 136.924 40.3193V40.8234H130.321C130.321 42.7279 131.255 46.604 135.034 46.604C138.813 46.604 136.17 46.5368 136.62 46.3127V47.0409L136.631 47.0297ZM134.91 40.0729C134.91 38.8742 134.505 37.3058 132.751 37.3058C130.996 37.3058 130.321 39.2327 130.321 40.0729H134.899H134.91Z" fill="#8A9EBE"/>
<path d="M144.1 39.4791C143.763 37.8548 142.784 37.1042 141.513 37.1042C140.242 37.1042 140.163 37.3618 139.826 37.6195C139.488 37.8884 139.365 38.3029 139.398 38.7398C139.432 39.2215 140.006 39.6696 140.534 40.0393C141.176 40.4201 142.12 40.801 142.649 41.1595C143.47 41.7196 143.74 41.9661 144.145 42.4478C144.595 42.9295 145 43.4785 145 44.2402C145 45.002 144.561 45.9542 143.853 46.5032C143.099 47.0745 142.312 47.4218 140.928 47.4218C139.545 47.4218 138.611 47.1753 137.756 46.8056C137.632 45.887 137.486 45.1364 137.295 44.285L137.666 44.1058C138.195 46.0326 139.252 46.8168 140.613 46.8168C141.974 46.8168 142.008 46.5032 142.379 46.1783C142.728 45.8646 142.852 45.3157 142.852 44.8004C142.852 44.285 142.717 44.061 142.447 43.7473C142.053 43.3328 141.401 43.064 140.355 42.459C139.443 41.8877 138.656 41.518 138.139 40.9243C137.745 40.4538 137.475 39.8824 137.475 39.1655C137.475 38.4485 137.801 37.7763 138.521 37.2946C139.162 36.8353 140.13 36.5553 141.423 36.5553C142.717 36.5553 143.358 36.7457 144.078 37.0146C144.145 37.6419 144.246 38.3365 144.46 39.3335L144.1 39.4791Z" fill="#8A9EBE"/>
<path d="M62.506 46.772C63.7545 46.772 64.4744 46.6152 64.4744 44.946V34.6396C64.4744 32.9704 63.7545 32.8136 62.506 32.8136V32.3655H68.445V32.8136C67.2302 32.8136 66.4878 32.9704 66.4878 34.6396V44.946C66.4878 46.6152 67.2302 46.772 68.445 46.772V47.2201H62.506V46.772Z" fill="#8A9EBE"/>
<path d="M3.91436 34.9757H0V32.7688H10.3596V34.9757H6.41145V47.1977H3.91436V34.9757Z" fill="#002D5D"/>
<path d="M9.54971 40.1401C9.54971 38.7286 9.52721 37.6979 9.47097 36.7793H11.6306L11.7318 38.751H11.7881C12.2718 37.2946 13.4416 36.5441 14.5101 36.5441C15.5787 36.5441 14.8926 36.5665 15.095 36.6113V39.0758C14.8701 39.031 14.6451 39.0086 14.3414 39.0086C13.1604 39.0086 12.328 39.804 12.103 41.0027C12.058 41.2379 12.0468 41.518 12.0468 41.7981V47.2089H9.53846V40.1401H9.54971Z" fill="#002D5D"/>
<path d="M25.0271 41.8877C25.0271 45.719 22.4625 47.433 19.9429 47.433C17.4234 47.433 14.9713 45.4165 14.9713 42.0557C14.9713 38.695 17.1084 36.5329 20.1004 36.5329C23.0924 36.5329 25.0271 38.7174 25.0271 41.8877ZM17.5583 41.9997C17.5583 44.0162 18.5144 45.5286 20.0217 45.5286C21.5289 45.5286 22.44 44.0722 22.44 41.9549C22.44 39.8376 21.7539 38.4485 20.0329 38.4485C18.312 38.4485 17.5471 40.2633 17.5471 41.9997" fill="#002D5D"/>
<path d="M25.8595 40.2409C25.8595 38.8742 25.8145 37.754 25.7808 36.7681H27.9742L28.0979 38.3701H28.1429C28.874 37.1938 30.0326 36.5329 31.5398 36.5329C33.8232 36.5329 35.7129 38.5829 35.7129 41.8429C35.7129 45.1029 33.452 47.433 31.1911 47.433C28.9302 47.433 28.9078 46.8729 28.4016 46.0439H28.3566V51.4435H25.8483V40.2521L25.8595 40.2409ZM28.3566 42.8287C28.3566 43.0864 28.3791 43.3216 28.4128 43.5569C28.6715 44.6323 29.5489 45.3941 30.6287 45.3941C32.2147 45.3941 33.1483 44.005 33.1483 41.9437C33.1483 39.8824 32.2934 38.6053 30.685 38.6053C29.0765 38.6053 28.694 39.4007 28.4241 40.5546C28.3791 40.7674 28.3453 41.0027 28.3453 41.2156V42.8175L28.3566 42.8287Z" fill="#002D5D"/>
<path d="M39.1323 33.8666C39.1323 34.6396 38.5812 35.2782 37.7038 35.2782C36.8265 35.2782 36.3203 34.6396 36.3203 33.8666C36.3203 33.0937 36.894 32.4327 37.7263 32.4327C38.5587 32.4327 39.1098 33.0488 39.1323 33.8666ZM36.4665 36.7793H38.9749V47.2089H36.4665V36.7793Z" fill="#002D5D"/>
<path d="M47.9509 46.884C47.4222 47.1417 46.3874 47.4218 45.1389 47.4218C42.0456 47.4218 40.0322 45.3269 40.0322 42.0893C40.0322 38.8518 42.0681 36.5441 45.5438 36.5441C49.0195 36.5441 47.3998 36.7569 47.9622 37.0146L47.5122 39.0086C47.1073 38.7958 46.5111 38.6053 45.6225 38.6053C43.7104 38.6053 42.5743 40.0841 42.5855 41.9885C42.5855 44.1282 43.9128 45.3493 45.6225 45.3493C47.3323 45.3493 47.1073 45.1588 47.6022 44.946L47.9509 46.8952V46.884Z" fill="#002D5D"/>
<path d="M56.7582 44.6995C56.7582 45.6406 56.8032 46.5592 56.9269 47.2089H54.666L54.4861 46.055H54.4298C53.8337 46.8728 52.7989 47.4442 51.4941 47.4442C49.5031 47.4442 48.3783 45.9206 48.3783 44.3411C48.3783 41.7309 50.5942 40.3753 54.2611 40.3977V40.2297C54.2611 39.5463 53.9912 38.4149 52.2477 38.4149C50.5042 38.4149 50.2568 38.7398 49.5819 39.1879L49.0982 37.4739C49.8293 37.0034 51.1116 36.5553 52.6751 36.5553C55.8471 36.5553 56.7695 38.6725 56.7695 40.9691V44.7107L56.7582 44.6995ZM54.3061 42.1005C52.5401 42.0781 50.8417 42.4702 50.8417 44.0498C50.8417 45.6294 51.4716 45.5509 52.2702 45.5509C53.0688 45.5509 54.0024 44.8676 54.2386 44.117C54.2949 43.9266 54.2949 43.7361 54.2949 43.5345V42.1005H54.3061Z" fill="#002D5D"/>
<path d="M60.8863 31.9958H58.3779V47.1977H60.8863V31.9958Z" fill="#002D5D"/>
<path d="M65.2505 53.8969C65.2505 54.0873 65.2393 54.2778 65.2055 54.4794C65.183 54.681 65.1268 54.8715 65.0593 55.0619C64.9918 55.2524 64.8906 55.4316 64.7669 55.6109C64.6431 55.7901 64.4857 55.9469 64.2832 56.0926C64.092 56.2382 63.8558 56.3726 63.5746 56.4847C63.2934 56.6079 62.9784 56.6975 62.596 56.7647C62.2698 56.8319 61.9323 56.8768 61.5724 56.888C61.2124 56.9104 60.8638 56.9216 60.5151 56.9216H57.703V51.0626H60.5151C61.3924 51.0626 62.1236 51.1186 62.731 51.2531C63.3271 51.3763 63.822 51.5555 64.182 51.7908C64.5531 52.026 64.8231 52.3285 64.9806 52.687C65.1493 53.0455 65.228 53.4488 65.228 53.9193M63.1584 53.8969C63.1584 53.7064 63.1584 53.5272 63.1471 53.3367C63.1471 53.1575 63.1021 52.9783 63.0571 52.8214C63.0009 52.6646 62.9334 52.5077 62.8209 52.3733C62.7197 52.2389 62.5622 52.1269 62.371 52.026C62.1798 51.9252 61.9323 51.8468 61.6286 51.7908C61.3362 51.7348 60.965 51.7124 60.5488 51.7124H59.7277V56.1934H60.5488C60.965 56.1934 61.3137 56.171 61.6061 56.115C61.8986 56.059 62.146 55.9805 62.3485 55.8797C62.551 55.7677 62.7085 55.6445 62.8209 55.4764C62.9334 55.3196 63.0234 55.1291 63.0684 54.9051C63.1134 54.7371 63.1359 54.5578 63.1471 54.3898C63.1584 54.2217 63.1696 54.0537 63.1696 53.8857" fill="#D7AA38"/>
<path d="M76.0038 56.9104V51.8916H75.9813L72.7418 56.9104H71.1558L67.9276 52.0148H67.8938V56.9104H66.3529V51.0514H68.9287L72.1007 55.8349H72.1232L75.2051 51.0514H77.8485V56.9104H76.0038Z" fill="#D7AA38"/>
<path d="M84.9123 52.6422C84.9123 52.5077 84.8898 52.3621 84.8336 52.2277C84.7773 52.0932 84.6873 51.97 84.5636 51.8692C84.4399 51.7572 84.2712 51.6787 84.0687 51.6115C83.855 51.5443 83.6075 51.5107 83.3038 51.5107C83.0001 51.5107 82.7189 51.5443 82.494 51.6227C82.269 51.69 82.0778 51.7908 81.9091 51.914C81.7516 52.0372 81.6166 52.1717 81.5154 52.3173C81.4141 52.4741 81.3354 52.631 81.2792 52.7878C81.2229 52.9446 81.1892 53.1015 81.1667 53.2583C81.1442 53.4151 81.1329 53.5496 81.1329 53.6728C81.1329 53.8521 81.1442 54.0425 81.1667 54.2441C81.1892 54.4458 81.2454 54.6362 81.3129 54.8267C81.3916 55.0171 81.4929 55.2076 81.6279 55.3868C81.7628 55.566 81.9428 55.7229 82.1565 55.8573C82.3815 55.9917 82.6402 56.0926 82.9551 56.171C83.2701 56.2494 83.6525 56.2942 84.0912 56.2942C84.5299 56.2942 84.6086 56.283 84.8448 56.2494C85.081 56.2158 85.3172 56.1822 85.5422 56.1262C85.7672 56.0702 85.9809 56.0141 86.1946 55.9469C86.4083 55.8797 86.6108 55.8013 86.8132 55.7117V56.6303C86.3183 56.7423 85.8009 56.8319 85.2947 56.8992C84.7886 56.9664 84.2599 57 83.7088 57C83.1576 57 82.6064 56.9552 82.1453 56.8768C81.6841 56.7983 81.2792 56.6863 80.9192 56.5519C80.5593 56.4062 80.2556 56.2382 80.0081 56.0478C79.7494 55.8573 79.5469 55.6333 79.3782 55.4092C79.2207 55.174 79.097 54.9275 79.0183 54.6698C78.9395 54.4122 78.9058 54.1433 78.9058 53.8633C78.9058 53.4712 78.9845 53.1015 79.142 52.743C79.2995 52.3957 79.5582 52.082 79.9181 51.8132C80.2781 51.5443 80.7392 51.3315 81.3129 51.1746C81.8866 51.0178 82.5727 50.9394 83.4051 50.9394C84.2374 50.9394 84.4174 50.973 84.8786 51.029C85.3397 51.085 85.7559 51.1858 86.1046 51.3203C86.4533 51.4547 86.7345 51.6339 86.9482 51.8468C87.1619 52.0596 87.2519 52.3285 87.2519 52.631H84.8786L84.9123 52.6422Z" fill="#D7AA38"/>
<path d="M91.6387 53.684C90.9076 53.684 90.3114 53.0903 90.3114 52.3621C90.3114 51.6339 90.9076 51.0402 91.6387 51.0402C92.3698 51.0402 92.966 51.6339 92.966 52.3621C92.966 53.0903 92.3698 53.684 91.6387 53.684ZM91.6387 51.2867C91.0425 51.2867 90.5589 51.7684 90.5589 52.3621C90.5589 52.9558 91.0425 53.4375 91.6387 53.4375C92.2348 53.4375 92.7185 52.9558 92.7185 52.3621C92.7185 51.7684 92.2348 51.2867 91.6387 51.2867Z" fill="#D7AA38"/>
<path d="M91.5712 52.2613C91.6499 52.2613 91.7062 52.2501 91.7287 52.2165C91.7624 52.1941 91.7737 52.1381 91.7737 52.082C91.7737 52.026 91.7624 51.97 91.7287 51.9476C91.6949 51.9252 91.6387 51.9028 91.5712 51.9028H91.4137V52.2613H91.5712ZM91.4137 52.5077V53.0343H91.0538V51.6451H91.605C91.7849 51.6451 91.9199 51.6787 92.0099 51.7348C92.0999 51.802 92.1449 51.8916 92.1449 52.026C92.1449 52.1605 92.1224 52.1941 92.0774 52.2501C92.0324 52.3061 91.9649 52.3509 91.8749 52.3845C91.9199 52.3957 91.9649 52.4181 92.0099 52.4629C92.0436 52.5077 92.0886 52.5638 92.1336 52.6422L92.3248 53.0343H91.9424L91.7737 52.687C91.7399 52.6198 91.7062 52.575 91.6724 52.5413C91.6387 52.5189 91.5937 52.5077 91.5262 52.5077H91.425" fill="#D7AA38"/>
</svg>
