<?xml version="1.0" encoding="UTF-8"?>
<svg id="Capa_1" xmlns="http://www.w3.org/2000/svg" version="1.1" viewBox="0 0 255 255">
  <!-- Generator: Adobe Illustrator 29.3.1, SVG Export Plug-In . SVG Version: 2.1.0 Build 151)  -->
  <defs>
    <style>
      .st0 {
        fill: #e18b09;
      }

      .st1 {
        fill: #1c1c1b;
      }

      .st2 {
        fill: #fff;
      }

      .st3 {
        fill: #1d1d1b;
      }
    </style>
  </defs>
  <path class="st0" d="M127.5,190.9c-16.2,0-32.5-6.2-44.8-18.5-12-12-18.6-27.9-18.6-44.8s6.6-32.9,18.6-44.8c12-12,27.9-18.6,44.8-18.6s32.9,6.6,44.8,18.6c12,12,18.6,27.9,18.6,44.8s-6.6,32.9-18.6,44.8c-12.4,12.4-28.6,18.5-44.8,18.5ZM127.5,74.8c-14.1,0-27.3,5.5-37.3,15.4-10,10-15.4,23.2-15.4,37.3s5.5,27.3,15.4,37.3c20.5,20.5,54,20.5,74.5,0,10-10,15.4-23.2,15.4-37.3s-5.5-27.3-15.4-37.3h0c-10-10-23.2-15.4-37.3-15.4Z"/>
  <g>
    <path class="st1" d="M165.5,147h-29.8c-3.1,0-5.6-2.5-5.6-5.6v-55.4c0-3.1,2.5-5.6,5.6-5.6h29.8c3.1,0,5.6,2.5,5.6,5.6v55.4c0,3.1-2.5,5.6-5.6,5.6ZM135.7,81.4c-2.5,0-4.6,2.1-4.6,4.6v55.4c0,2.5,2.1,4.6,4.6,4.6h29.8c2.5,0,4.6-2.1,4.6-4.6v-55.4c0-2.5-2.1-4.6-4.6-4.6h-29.8Z"/>
    <path class="st3" d="M165.5,146.8h-29.8c-3,0-5.4-2.4-5.4-5.4v-55.4c0-3,2.4-5.4,5.4-5.4h29.8c3,0,5.4,2.4,5.4,5.4v55.4c0,3-2.4,5.4-5.4,5.4ZM135.7,81.1c-2.7,0-4.9,2.2-4.9,4.9v55.4c0,2.7,2.2,4.9,4.9,4.9h29.8c2.7,0,4.9-2.2,4.9-4.9v-55.4c0-2.7-2.2-4.9-4.9-4.9h-29.8Z"/>
    <g>
      <path class="st3" d="M164.5,136.8h-27.7c-2,0-3.6-1.6-3.6-3.6v-42.1c0-2,1.6-3.6,3.6-3.6h27.7c2,0,3.6,1.6,3.6,3.6v42.1c0,2-1.6,3.6-3.6,3.6ZM136.8,88c-1.7,0-3.1,1.4-3.1,3.1v42.1c0,1.7,1.4,3.1,3.1,3.1h27.7c1.7,0,3.1-1.4,3.1-3.1v-42.1c0-1.7-1.4-3.1-3.1-3.1h-27.7Z"/>
      <path class="st3" d="M165.5,114.1c-.3,0-.5-.2-.5-.5v-6.5c0-.3.2-.5.5-.5s.5.2.5.5v6.5c0,.3-.2.5-.5.5Z"/>
      <path class="st3" d="M165.5,105.8c-.3,0-.5-.2-.5-.5v-12.4c0-1.3-1.1-2.4-2.4-2.4h-9.5c-.3,0-.5-.2-.5-.5s.2-.5.5-.5h9.5c1.9,0,3.4,1.5,3.4,3.4v12.4c0,.3-.2.5-.5.5Z"/>
    </g>
    <path class="st2" d="M154.7,86h-8.1c-.8,0-1.5-.7-1.5-1.5s.7-1.5,1.5-1.5h8.1c.8,0,1.5.7,1.5,1.5s-.7,1.5-1.5,1.5ZM146.6,83.6c-.5,0-1,.4-1,1s.4,1,1,1h8.1c.5,0,1-.4,1-1s-.4-1-1-1h-8.1Z"/>
    <path class="st3" d="M150.6,144.8c-1.9,0-3.5-1.6-3.5-3.5s1.6-3.5,3.5-3.5,3.5,1.6,3.5,3.5-1.6,3.5-3.5,3.5ZM150.6,138.2c-1.7,0-3,1.4-3,3s1.4,3,3,3,3-1.4,3-3-1.4-3-3-3Z"/>
  </g>
  <g>
    <path class="st1" d="M139.7,161.8h-57.9c-3.6,0-6.4-2.9-6.4-6.4v-33.4c0-3.6,2.9-6.4,6.4-6.4h15v-.2c0-2.8,2.3-5,5-5h17.8c2.8,0,5,2.3,5,5v.2h5v-.2c0-1.2.9-2.1,2.1-2.1h6.2c1.2,0,2.1.9,2.1,2.1v.2c3.4.2,6,3,6,6.4v33.4c0,3.6-2.9,6.4-6.4,6.4ZM81.8,116.6c-3,0-5.4,2.4-5.4,5.4v33.4c0,3,2.4,5.4,5.4,5.4h57.9c3,0,5.4-2.4,5.4-5.4v-33.4c0-3-2.4-5.4-5.4-5.4h-.6v-1.2c0-.6-.5-1.1-1.1-1.1h-6.2c-.6,0-1.1.5-1.1,1.1v1.2h-7v-1.2c0-2.2-1.8-4-4-4h-17.8c-2.2,0-4,1.8-4,4v1.2h-16Z"/>
    <path class="st3" d="M139.7,161.6h-57.9c-3.4,0-6.2-2.8-6.2-6.2v-33.4c0-3.4,2.8-6.2,6.2-6.2h15.3v-.4c0-2.6,2.1-4.8,4.8-4.8h17.8c2.6,0,4.8,2.1,4.8,4.8v.4h5.5v-.4c0-1,.8-1.8,1.8-1.8h6.2c1,0,1.8.8,1.8,1.8v.4c3.3,0,6,2.8,6,6.2v33.4c0,3.4-2.8,6.2-6.2,6.2ZM81.8,116.3c-3.1,0-5.7,2.6-5.7,5.7v33.4c0,3.1,2.6,5.7,5.7,5.7h57.9c3.1,0,5.7-2.6,5.7-5.7v-33.4c0-3.1-2.6-5.7-5.7-5.7h0c-.1,0-.2-.1-.2-.2v-.7c0-.7-.6-1.3-1.3-1.3h-6.2c-.7,0-1.3.6-1.3,1.3v.7c0,.1-.1.2-.2.2h-6c-.1,0-.2-.1-.2-.2v-.7c0-2.4-1.9-4.3-4.3-4.3h-17.8c-2.4,0-4.3,1.9-4.3,4.3v.7c0,.1-.1.2-.2.2h-15.5Z"/>
    <g>
      <path class="st1" d="M110.8,154.6c-8.2,0-14.9-6.7-14.9-14.9s6.7-14.9,14.9-14.9,14.9,6.7,14.9,14.9-6.7,14.9-14.9,14.9ZM110.8,125.9c-7.7,0-13.9,6.2-13.9,13.9s6.2,13.9,13.9,13.9,13.9-6.2,13.9-13.9-6.2-13.9-13.9-13.9Z"/>
      <path class="st1" d="M110.8,152c-6.8,0-12.3-5.5-12.3-12.3s5.5-12.3,12.3-12.3,12.3,5.5,12.3,12.3-5.5,12.3-12.3,12.3ZM110.8,128.5c-6.2,0-11.3,5.1-11.3,11.3s5.1,11.3,11.3,11.3,11.3-5.1,11.3-11.3-5.1-11.3-11.3-11.3Z"/>
      <path class="st1" d="M110.8,156.3c-9.1,0-16.5-7.4-16.5-16.5s7.4-16.5,16.5-16.5,16.5,7.4,16.5,16.5-7.4,16.5-16.5,16.5ZM110.8,124.2c-8.6,0-15.5,7-15.5,15.5s7,15.5,15.5,15.5,15.5-7,15.5-15.5-7-15.5-15.5-15.5Z"/>
    </g>
    <path class="st3" d="M118,146.9l-.7-.7c1.7-1.7,2.7-4,2.7-6.5,0-5.1-4.1-9.2-9.2-9.2s-3.9.6-5.5,1.8l-.6-.8c1.8-1.3,3.9-2,6.1-2,5.6,0,10.2,4.6,10.2,10.2s-1.1,5.3-3,7.2Z"/>
    <path class="st3" d="M122.7,116.5h-24.2c-.1,0-.2-.1-.2-.2s.1-.2.2-.2h24.2c.1,0,.2.1.2.2s-.1.2-.2.2Z"/>
    <path class="st3" d="M139,126.8h-8c-1.4,0-2.5-1.1-2.5-2.5v-1.5c0-1.4,1.1-2.5,2.5-2.5h8c1.4,0,2.5,1.1,2.5,2.5v1.5c0,1.4-1.1,2.5-2.5,2.5ZM130.9,120.8c-1.1,0-2,.9-2,2v1.5c0,1.1.9,2,2,2h8c1.1,0,2-.9,2-2v-1.5c0-1.1-.9-2-2-2h-8Z"/>
  </g>
  <rect class="st0" x="125.4" y="69.5" width="10.7" height="116.1" transform="translate(-51.9 129.8) rotate(-45)"/>
</svg>